<svg id="visual" viewBox="0 0 1024 741" width="1024" height="741" xmlns="http://www.w3.org/2000/svg" xmlns:xlink="http://www.w3.org/1999/xlink" version="1.1"><rect x="0" y="0" width="1024" height="741" fill="#F5EEEA"></rect><path d="M413 741L429.2 710.2C445.3 679.3 477.7 617.7 480.5 556C483.3 494.3 456.7 432.7 461.3 370.8C466 309 502 247 556.2 185.2C610.3 123.3 682.7 61.7 718.8 30.8L755 0L1024 0L1024 30.8C1024 61.7 1024 123.3 1024 185.2C1024 247 1024 309 1024 370.8C1024 432.7 1024 494.3 1024 556C1024 617.7 1024 679.3 1024 710.2L1024 741Z" fill="#e45826" stroke-linecap="round" stroke-linejoin="miter"></path></svg>